<svg clip-rule="evenodd" fill-rule="evenodd" stroke-linejoin="round" stroke-miterlimit="2" viewBox="0 0 77 77" xmlns="http://www.w3.org/2000/svg"><path d="m38.35 16.28c.29 0 .59.16.72.48 2.62 6.29 8.79 10.32 15.47 10.32.71 0 1.43-.05 2.15-.14h.11c.63 0 1.01.73.61 1.26-4.58 5.98-4.58 14.34-.02 20.33.4.52.01 1.25-.61 1.25h-.11c-.72-.09-1.43-.14-2.14-.14-6.68 0-12.85 4.02-15.47 10.32-.13.32-.43.48-.72.48s-.59-.16-.72-.48c-2.62-6.29-8.79-10.32-15.47-10.32-.71 0-1.43.05-2.15.14h-.11c-.63 0-1.01-.73-.61-1.26 4.58-5.98 4.58-14.34.02-20.33-.4-.52-.01-1.25.61-1.25h.11c.72.09 1.43.14 2.14.14 6.68 0 12.85-4.02 15.47-10.32.13-.32.43-.48.72-.48m0-8.7c-3.84 0-7.28 2.29-8.75 5.84-1.23 2.96-4.22 4.96-7.44 4.96-.34 0-.68-.02-1.02-.07-.4-.05-.81-.08-1.22-.08-3.62 0-6.88 2.02-8.49 5.27-1.611 3.22-1.242 7.093.95 9.95 2.19 2.88 2.19 6.9 0 9.77-2.203 2.855-2.581 6.734-.97 9.96 1.58 3.237 4.887 5.294 8.49 5.28.41 0 .82-.03 1.23-.08.34-.04.69-.07 1.03-.07 3.22 0 6.21 1.99 7.44 4.96 1.48 3.55 4.91 5.84 8.75 5.84s7.28-2.29 8.75-5.84c1.23-2.96 4.22-4.96 7.44-4.96.34 0 .68.02 1.02.07.4.05.81.08 1.22.08 3.62 0 6.88-2.02 8.49-5.27 1.611-3.22 1.242-7.093-.95-9.95-2.19-2.88-2.19-6.9 0-9.77 2.21-2.89 2.58-6.7.97-9.96-1.58-3.237-4.887-5.294-8.49-5.28-.41 0-.82.03-1.23.08-.34.04-.69.07-1.03.07-3.22 0-6.21-1.99-7.44-4.96-1.459-3.534-4.926-5.849-8.75-5.84z" fill-rule="nonzero"/></svg>