<svg clip-rule="evenodd" fill-rule="evenodd" stroke-linejoin="round" stroke-miterlimit="2" viewBox="0 0 77 77" xmlns="http://www.w3.org/2000/svg"><g fill-rule="nonzero"><path d="m41 27.35 9.18 32.02 17.37-12.62-8.03-24.71zm11.3 10.25c-2.52 0-4.56-2.04-4.56-4.56s2.04-4.56 4.56-4.56 4.56 2.04 4.56 4.56-2.04 4.56-4.56 4.56z"/><path d="m37.9 38.21-4.29-14.95 24.07-6.9-1.28-3.93h-36.1l-11.15 34.32zm-11.87-22.98c1.87 0 3.38 1.51 3.38 3.38s-1.51 3.38-3.38 3.38-3.38-1.51-3.38-3.38 1.51-3.38 3.38-3.38zm13.01 26.95-25.69 7.63 25 18.17 6.69-4.87z"/></g></svg>