<svg clip-rule="evenodd" fill-rule="evenodd" stroke-linejoin="round" stroke-miterlimit="2" viewBox="0 0 77 77" xmlns="http://www.w3.org/2000/svg"><path d="m54 41.57s-3.96-6.86-5.85-9.78c-1.97-3.07-3.82-6.73-5.26-12.61-1.44-5.87-2.22-11.53-4.54-11.53s-3.1 5.65-4.54 11.53c-1.44 5.87-3.29 9.53-5.26 12.61-1.88 2.93-5.85 9.78-5.85 9.78-1.693 2.813-2.585 6.037-2.58 9.32 0 10.03 8.2 18.17 18.23 18.17s18.23-8.13 18.23-18.17c0-3.41-.95-6.59-2.58-9.32zm-15.65 23.39c-8.18 0-14.61-6.1-14.61-10.5 0-2.91 6.43 2.52 14.61 2.52s14.61-5.43 14.61-2.52c0 4.41-6.43 10.5-14.61 10.5z" fill-rule="nonzero"/></svg>